<svg width="28" height="28" viewBox="0 0 28 28" fill="none" xmlns="http://www.w3.org/2000/svg">
<g>
<path d="M13.7186 4.50028C13.1471 4.50028 12.6606 4.293 12.2588 3.87844C11.8571 3.46388 11.6563 2.96176 11.6563 2.37207C11.6563 1.78239 11.8571 1.28026 12.2588 0.865706C12.6606 0.451146 13.1471 0.243866 13.7186 0.243866C14.29 0.243866 14.7766 0.451146 15.1783 0.865706C15.58 1.28026 15.7809 1.78239 15.7809 2.37207C15.7809 2.96176 15.58 3.46388 15.1783 3.87844C14.7766 4.293 14.29 4.50028 13.7186 4.50028ZM10.8185 21.8363V7.73691C9.67991 7.64085 8.54779 7.5023 7.42213 7.32125C6.29644 7.14021 5.2302 6.91667 4.22339 6.65065L4.63154 4.92151C6.06228 5.30281 7.54492 5.57918 9.07946 5.75061C10.614 5.92205 12.1604 6.00777 13.7186 6.00777C15.2767 6.00777 16.8231 5.92205 18.3577 5.75061C19.8922 5.57918 21.3748 5.30281 22.8056 4.92151L23.2137 6.65065C22.2069 6.91667 21.1407 7.14021 20.015 7.32125C18.8893 7.5023 17.7572 7.64085 16.6186 7.73691V21.8363H14.9431V14.8975H12.4941V21.8363H10.8185ZM9.25023 27.5337C8.97669 27.5337 8.74362 27.4343 8.55099 27.2355C8.35837 27.0368 8.26206 26.7962 8.26206 26.514C8.26206 26.2317 8.35837 25.9911 8.55099 25.7924C8.74362 25.5936 8.97669 25.4942 9.25023 25.4942C9.52377 25.4942 9.75685 25.5936 9.94947 25.7924C10.1421 25.9911 10.2384 26.2317 10.2384 26.514C10.2384 26.7962 10.1421 27.0368 9.94947 27.2355C9.75685 27.4343 9.52377 27.5337 9.25023 27.5337ZM13.7186 27.5337C13.445 27.5337 13.2119 27.4343 13.0193 27.2355C12.8267 27.0368 12.7304 26.7962 12.7304 26.514C12.7304 26.2317 12.8267 25.9911 13.0193 25.7924C13.2119 25.5936 13.445 25.4942 13.7186 25.4942C13.9921 25.4942 14.2252 25.5936 14.4178 25.7924C14.6104 25.9911 14.7067 26.2317 14.7067 26.514C14.7067 26.7962 14.6104 27.0368 14.4178 27.2355C14.2252 27.4343 13.9921 27.5337 13.7186 27.5337ZM18.1869 27.5337C17.9134 27.5337 17.6803 27.4343 17.4877 27.2355C17.295 27.0368 17.1987 26.7962 17.1987 26.514C17.1987 26.2317 17.295 25.9911 17.4877 25.7924C17.6803 25.5936 17.9134 25.4942 18.1869 25.4942C18.4604 25.4942 18.6935 25.5936 18.8861 25.7924C19.0787 25.9911 19.1751 26.2317 19.1751 26.514C19.1751 26.7962 19.0787 27.0368 18.8861 27.2355C18.6935 27.4343 18.4604 27.5337 18.1869 27.5337Z" fill="black"/>
</g>
</svg>
