<svg width="28" height="28" viewBox="0 0 28 28" fill="none" xmlns="http://www.w3.org/2000/svg">
<g>
<path d="M5.19423 23.3216V20.6614H8.61423L5.7442 10.9691C5.24866 10.7031 4.84694 10.3174 4.53903 9.81192C4.23111 9.30648 4.07715 8.74784 4.07715 8.13598C4.07715 7.25662 4.37612 6.50842 4.97405 5.8914C5.57197 5.27437 6.297 4.96586 7.14912 4.96586C7.85374 4.96586 8.47028 5.18201 8.99873 5.6143C9.52721 6.04659 9.88882 6.59897 10.0836 7.27142H13.9161V5.83042C13.9161 5.58508 13.9963 5.37966 14.1567 5.21414C14.3171 5.04862 14.5161 4.96586 14.7539 4.96586C14.8999 4.96586 15.036 5.00429 15.162 5.08114C15.288 5.15799 15.3854 5.26587 15.4542 5.40478V5.55997L17.4177 3.6712C17.578 3.50566 17.7639 3.40257 17.9751 3.36194C18.1864 3.3213 18.393 3.35493 18.5949 3.46281L22.8871 5.51565C23.0675 5.60875 23.196 5.74361 23.2726 5.92022C23.3493 6.09682 23.3482 6.27232 23.2694 6.44672C23.1792 6.63293 23.0485 6.75228 22.8774 6.80475C22.7063 6.8572 22.5362 6.84279 22.3672 6.76152L18.2383 4.79291L15.5916 7.32903V8.94292L18.2383 11.4214L22.3672 9.4528C22.5362 9.37151 22.7091 9.36006 22.886 9.41845C23.0628 9.47682 23.1907 9.5932 23.2694 9.76759C23.3597 9.95381 23.3636 10.1323 23.2812 10.3029C23.1989 10.4737 23.0675 10.6056 22.8871 10.6987L18.5949 12.787C18.393 12.8949 18.1864 12.9266 17.9751 12.8823C17.7639 12.838 17.578 12.7367 17.4177 12.5786L15.4542 10.712V10.8671C15.3854 10.9824 15.288 11.0844 15.162 11.1731C15.036 11.2618 14.8999 11.3061 14.7539 11.3061C14.5161 11.3061 14.3171 11.2233 14.1567 11.0578C13.9963 10.8923 13.9161 10.6869 13.9161 10.4415V9.00054H10.0836C10.0277 9.20598 9.95111 9.40551 9.85372 9.59912C9.75633 9.79273 9.64104 9.97008 9.50784 10.1312L15.0073 20.6614H19.1577V23.3216H5.19423ZM7.14912 9.57698C7.53724 9.57698 7.86699 9.43694 8.13838 9.15685C8.40978 8.87678 8.54548 8.53649 8.54548 8.13598C8.54548 7.73544 8.40978 7.39514 8.13838 7.11507C7.86699 6.83501 7.53724 6.69497 7.14912 6.69497C6.76099 6.69497 6.43123 6.83501 6.15984 7.11507C5.88844 7.39514 5.75274 7.73544 5.75274 8.13598C5.75274 8.53649 5.88844 8.87678 6.15984 9.15685C6.43123 9.43694 6.76099 9.57698 7.14912 9.57698ZM10.3457 20.6614H13.0826L8.1502 11.1953C8.09291 11.2322 8.00268 11.2636 7.8795 11.2895C7.75632 11.3153 7.65177 11.3209 7.56585 11.3061L10.3457 20.6614Z" fill="black"/>
</g>
</svg>
