<svg width="32" height="32" viewBox="0 0 32 32" fill="none" xmlns="http://www.w3.org/2000/svg">
<mask id="mask0_60_1013" style="mask-type:alpha" maskUnits="userSpaceOnUse" x="0" y="0" width="32" height="32">
<rect width="32" height="32" fill="#D9D9D9"/>
</mask>
<g mask="url(#mask0_60_1013)">
<path d="M15.1231 12.1539H25.9436C25.3522 10.6034 24.4291 9.25257 23.1744 8.10131C21.9197 6.95002 20.4838 6.1607 18.8667 5.73334L15.1231 12.1539ZM12.2103 14.8205L17.6462 5.46667C17.4017 5.42223 17.1274 5.3889 16.8231 5.36667C16.5188 5.34445 16.2445 5.33334 16 5.33334C14.5333 5.33334 13.1667 5.61112 11.9 6.16667C10.6333 6.72223 9.51112 7.46667 8.53334 8.40001L12.2103 14.8205ZM5.66667 18.6667H13.0872L7.70257 9.33847C6.95728 10.2752 6.37609 11.3021 5.95897 12.4192C5.54189 13.5363 5.33334 14.7299 5.33334 16C5.33334 16.4667 5.36112 16.9167 5.41667 17.35C5.47223 17.7833 5.55556 18.2222 5.66667 18.6667ZM13.159 26.2667L16.8615 19.8461H6.05641C6.64785 21.3966 7.57521 22.7474 8.83847 23.8987C10.1017 25.05 11.5419 25.8393 13.159 26.2667ZM16 26.6667C17.4667 26.6667 18.8333 26.3889 20.1 25.8333C21.3667 25.2778 22.4889 24.5333 23.4667 23.6L19.7897 17.1795L14.3795 26.5077C14.6239 26.5607 14.8885 26.6004 15.1731 26.6269C15.4577 26.6534 15.7333 26.6667 16 26.6667ZM24.2974 22.6615C25.0086 21.7504 25.5812 20.7235 26.0154 19.5808C26.4496 18.438 26.6667 17.2445 26.6667 16C26.6667 15.5333 26.6389 15.0833 26.5833 14.65C26.5278 14.2167 26.4445 13.7778 26.3333 13.3333H18.9128L24.2974 22.6615ZM16 28.6666C14.2633 28.6666 12.6244 28.3337 11.0834 27.6679C9.54235 27.0021 8.19833 26.0957 7.05131 24.9487C5.90431 23.8017 4.99791 22.4577 4.33211 20.9166C3.66629 19.3756 3.33337 17.7368 3.33337 16C3.33337 14.2496 3.66629 12.6073 4.33211 11.0731C4.99791 9.53893 5.90431 8.19833 7.05131 7.05131C8.19833 5.90431 9.54235 4.99791 11.0834 4.33211C12.6244 3.66629 14.2633 3.33337 16 3.33337C17.7504 3.33337 19.3927 3.66629 20.9269 4.33211C22.4611 4.99791 23.8017 5.90431 24.9487 7.05131C26.0957 8.19833 27.0021 9.53893 27.6679 11.0731C28.3337 12.6073 28.6666 14.2496 28.6666 16C28.6666 17.7368 28.3337 19.3756 27.6679 20.9166C27.0021 22.4577 26.0957 23.8017 24.9487 24.9487C23.8017 26.0957 22.4611 27.0021 20.9269 27.6679C19.3927 28.3337 17.7504 28.6666 16 28.6666Z" fill="#1C1B1F"/>
</g>
</svg>
