<svg width="89" height="89" viewBox="0 0 89 89" fill="none" xmlns="http://www.w3.org/2000/svg">
<mask id="mask0_58_279" style="mask-type:alpha" maskUnits="userSpaceOnUse" x="0" y="0" width="89" height="89">
<rect width="89" height="89" fill="#D9D9D9"/>
</mask>
<g mask="url(#mask0_58_279)">
<path d="M42.061 33.8029H72.1556C70.5107 29.4908 67.9434 25.7337 64.4537 22.5317C60.9641 19.3297 56.9705 17.1344 52.4729 15.9458L42.061 33.8029ZM33.9598 41.2196L49.0784 15.2042C48.3986 15.0806 47.6355 14.9878 46.7893 14.926C45.943 14.8642 45.1799 14.8333 44.5 14.8333C40.4208 14.8333 36.6198 15.6059 33.0969 17.151C29.574 18.6962 26.4528 20.7667 23.7333 23.3625L33.9598 41.2196ZM15.7604 51.9167H36.3988L21.4228 25.9726C19.3499 28.5779 17.7335 31.434 16.5734 34.541C15.4134 37.6479 14.8333 40.9676 14.8333 44.5C14.8333 45.7979 14.9106 47.0495 15.0651 48.2547C15.2196 49.4599 15.4514 50.6806 15.7604 51.9167ZM36.5984 73.0542L46.8962 55.1971H16.8444C18.4893 59.5092 21.0685 63.2663 24.582 66.4683C28.0954 69.6703 32.1009 71.8656 36.5984 73.0542ZM44.5 74.1667C48.5792 74.1667 52.3802 73.3941 55.9031 71.849C59.4261 70.3038 62.5472 68.2333 65.2667 65.6375L55.0402 47.7804L39.9929 73.7245C40.6728 73.8719 41.4085 73.9824 42.2001 74.0562C42.9917 74.1298 43.7583 74.1667 44.5 74.1667ZM67.5772 63.0274C69.555 60.4934 71.1477 57.6372 72.3553 54.459C73.5629 51.2808 74.1667 47.9611 74.1667 44.5C74.1667 43.2021 74.0894 41.9505 73.9349 40.7453C73.7804 39.5401 73.5486 38.3194 73.2396 37.0833H52.6012L67.5772 63.0274ZM44.5 79.7291C39.6697 79.7291 35.1115 78.8032 30.8256 76.9513C26.5397 75.0996 22.8016 72.5787 19.6114 69.3886C16.4213 66.1984 13.9004 62.4604 12.0487 58.1744C10.1968 53.8885 9.27094 49.3303 9.27094 44.5C9.27094 39.6316 10.1968 35.064 12.0487 30.7971C13.9004 26.5301 16.4213 22.8016 19.6114 19.6114C22.8016 16.4213 26.5397 13.9004 30.8256 12.0487C35.1115 10.1968 39.6697 9.27092 44.5 9.27092C49.3684 9.27092 53.936 10.1968 58.203 12.0487C62.4699 13.9004 66.1984 16.4213 69.3886 19.6114C72.5787 22.8016 75.0996 26.5301 76.9514 30.7971C78.8032 35.064 79.7291 39.6316 79.7291 44.5C79.7291 49.3303 78.8032 53.8885 76.9514 58.1744C75.0996 62.4604 72.5787 66.1984 69.3886 69.3886C66.1984 72.5787 62.4699 75.0996 58.203 76.9513C53.936 78.8032 49.3684 79.7291 44.5 79.7291Z" fill="#1C1B1F"/>
</g>
</svg>
