<svg width="32" height="32" viewBox="0 0 32 32" fill="none" xmlns="http://www.w3.org/2000/svg">
<mask id="mask0_63_1167" style="mask-type:alpha" maskUnits="userSpaceOnUse" x="0" y="0" width="32" height="32">
<rect width="32" height="32" fill="#D9D9D9"/>
</mask>
<g mask="url(#mask0_63_1167)">
<path d="M14.6667 20C14.2889 20 13.9722 19.8722 13.7167 19.6167C13.4611 19.3611 13.3333 19.0444 13.3333 18.6667V13.3333C13.3333 12.9556 13.4611 12.6389 13.7167 12.3833C13.9722 12.1278 14.2889 12 14.6667 12H18.6667C19.0444 12 19.3611 12.1278 19.6167 12.3833C19.8722 12.6389 20 12.9556 20 13.3333V18.6667C20 19.0444 19.8722 19.3611 19.6167 19.6167C19.3611 19.8722 19.0444 20 18.6667 20H14.6667ZM15.3333 18H18V14H15.3333V18ZM5.33333 20C4.95556 20 4.63889 19.8722 4.38333 19.6167C4.12778 19.3611 4 19.0444 4 18.6667V13.3333C4 12.9556 4.12778 12.6389 4.38333 12.3833C4.63889 12.1278 4.95556 12 5.33333 12H9.33333C9.71111 12 10.0278 12.1278 10.2833 12.3833C10.5389 12.6389 10.6667 12.9556 10.6667 13.3333V14.6667H8.66667V14H6V18H8.66667V17.3333H10.6667V18.6667C10.6667 19.0444 10.5389 19.3611 10.2833 19.6167C10.0278 19.8722 9.71111 20 9.33333 20H5.33333ZM22.6667 24V20.6667C22.6667 20.2889 22.7944 19.9722 23.05 19.7167C23.3056 19.4611 23.6222 19.3333 24 19.3333H26.6667V18H22.6667V16H27.3333C27.7111 16 28.0278 16.1278 28.2833 16.3833C28.5389 16.6389 28.6667 16.9556 28.6667 17.3333V19.3333C28.6667 19.7111 28.5389 20.0278 28.2833 20.2833C28.0278 20.5389 27.7111 20.6667 27.3333 20.6667H24.6667V22H28.6667V24H22.6667Z" fill="#1C1B1F"/>
</g>
</svg>
