<svg width="89" height="89" viewBox="0 0 89 89" fill="none" xmlns="http://www.w3.org/2000/svg">
<mask id="mask0_55_226" style="mask-type:alpha" maskUnits="userSpaceOnUse" x="0" y="0" width="89" height="89">
<rect width="89" height="89" fill="#D9D9D9"/>
</mask>
<g mask="url(#mask0_55_226)">
<path d="M57.4792 39.8645C56.1955 39.8645 55.1021 39.4129 54.1988 38.5096C53.2955 37.6063 52.8439 36.5128 52.8439 35.2292C52.8439 34.3687 53.0602 33.5105 53.4928 32.6548C53.9254 31.799 54.4103 31.0122 54.9476 30.2943C55.4848 29.5765 56.0054 28.9537 56.5093 28.426C57.0132 27.8982 57.3365 27.5511 57.4792 27.3848C57.6218 27.5511 57.9451 27.8982 58.4491 28.426C58.953 28.9537 59.4736 29.5765 60.0108 30.2943C60.548 31.0122 61.033 31.799 61.4656 32.6548C61.8982 33.5105 62.1145 34.3687 62.1145 35.2292C62.1145 36.5128 61.6629 37.6063 60.7596 38.5096C59.8563 39.4129 58.7628 39.8645 57.4792 39.8645ZM72.3125 28.7395C71.0289 28.7395 69.9354 28.2879 69.0321 27.3846C68.1288 26.4813 67.6772 25.3878 67.6772 24.1042C67.6772 23.2437 67.8935 22.3855 68.3262 21.5298C68.7587 20.674 69.2437 19.8872 69.7809 19.1693C70.3181 18.4515 70.8387 17.8287 71.3426 17.301C71.8466 16.7732 72.1699 16.4261 72.3125 16.2598C72.4552 16.4261 72.7785 16.7732 73.2824 17.301C73.7863 17.8287 74.3069 18.4515 74.8441 19.1693C75.3814 19.8872 75.8663 20.674 76.2989 21.5298C76.7315 22.3855 76.9478 23.2437 76.9478 24.1042C76.9478 25.3878 76.4962 26.4813 75.5929 27.3846C74.6896 28.2879 73.5962 28.7395 72.3125 28.7395ZM72.3125 50.9895C71.0289 50.9895 69.9354 50.5379 69.0321 49.6346C68.1288 48.7313 67.6772 47.6378 67.6772 46.3542C67.6772 45.4937 67.8935 44.6355 68.3262 43.7798C68.7587 42.924 69.2437 42.1372 69.7809 41.4193C70.3181 40.7015 70.8387 40.0787 71.3426 39.551C71.8466 39.0232 72.1699 38.6761 72.3125 38.5098C72.4552 38.6761 72.7785 39.0232 73.2824 39.551C73.7863 40.0787 74.3069 40.7015 74.8441 41.4193C75.3814 42.1372 75.8663 42.924 76.2989 43.7798C76.7315 44.6355 76.9478 45.4937 76.9478 46.3542C76.9478 47.6378 76.4962 48.7313 75.5929 49.6346C74.6896 50.5379 73.5962 50.9895 72.3125 50.9895ZM33.6603 76.0208C29.0297 76.0208 25.0908 74.3972 21.8437 71.1501C18.5965 67.9029 16.973 63.964 16.973 59.3334C16.973 56.5569 17.6219 53.9634 18.9198 51.553C20.2178 49.1426 22.041 47.1245 24.3896 45.4985V22.25C24.3896 19.659 25.287 17.4661 27.0817 15.6713C28.8764 13.8766 31.0693 12.9793 33.6603 12.9793C36.2514 12.9793 38.4442 13.8766 40.239 15.6713C42.0337 17.4661 42.931 19.659 42.931 22.25V45.4985C45.2796 47.1245 47.1029 49.1426 48.4008 51.553C49.6987 53.9634 50.3477 56.5569 50.3477 59.3334C50.3477 63.964 48.7241 67.9029 45.477 71.1501C42.2298 74.3972 38.2909 76.0208 33.6603 76.0208ZM22.5353 59.3334H44.7853C44.7853 57.5172 44.3455 55.795 43.466 54.1666C42.5864 52.5383 41.3289 51.1275 39.6935 49.9341L37.3686 48.2084V22.25C37.3686 21.1993 37.0132 20.3186 36.3025 19.6078C35.5917 18.8971 34.711 18.5417 33.6603 18.5417C32.6096 18.5417 31.7289 18.8971 31.0181 19.6078C30.3073 20.3186 29.9519 21.1993 29.9519 22.25V48.2084L27.6272 49.9341C25.9917 51.1275 24.7342 52.5383 23.8546 54.1666C22.9751 55.795 22.5353 57.5172 22.5353 59.3334Z" fill="#1C1B1F"/>
</g>
</svg>
