<svg width="32" height="32" viewBox="0 0 32 32" fill="none" xmlns="http://www.w3.org/2000/svg">
<mask id="mask0_60_1004" style="mask-type:alpha" maskUnits="userSpaceOnUse" x="0" y="0" width="32" height="32">
<rect width="32" height="32" fill="#D9D9D9"/>
</mask>
<g mask="url(#mask0_60_1004)">
<path d="M20.6667 14.3334C20.2052 14.3334 19.812 14.171 19.4872 13.8462C19.1625 13.5214 19.0001 13.1283 19.0001 12.6667C19.0001 12.3573 19.0778 12.0488 19.2334 11.7411C19.3889 11.4334 19.5633 11.1505 19.7565 10.8924C19.9496 10.6343 20.1368 10.4103 20.318 10.2206C20.4992 10.0309 20.6154 9.90607 20.6667 9.84625C20.718 9.90607 20.8342 10.0309 21.0154 10.2206C21.1966 10.4103 21.3838 10.6343 21.5769 10.8924C21.7701 11.1505 21.9445 11.4334 22.1 11.7411C22.2556 12.0488 22.3333 12.3573 22.3333 12.6667C22.3333 13.1283 22.1709 13.5214 21.8462 13.8462C21.5214 14.171 21.1282 14.3334 20.6667 14.3334ZM26 10.3334C25.5385 10.3334 25.1453 10.171 24.8206 9.84618C24.4958 9.5214 24.3334 9.12825 24.3334 8.66672C24.3334 8.35732 24.4112 8.04877 24.5667 7.74108C24.7223 7.43339 24.8966 7.15049 25.0898 6.89238C25.283 6.63427 25.4701 6.41035 25.6513 6.22062C25.8325 6.03086 25.9487 5.90607 26 5.84625C26.0513 5.90607 26.1676 6.03086 26.3488 6.22062C26.5299 6.41035 26.7171 6.63427 26.9103 6.89238C27.1034 7.15049 27.2778 7.43339 27.4333 7.74108C27.5889 8.04877 27.6667 8.35732 27.6667 8.66672C27.6667 9.12825 27.5043 9.5214 27.1795 9.84618C26.8547 10.171 26.4616 10.3334 26 10.3334ZM26 18.3334C25.5385 18.3334 25.1453 18.171 24.8206 17.8462C24.4958 17.5214 24.3334 17.1283 24.3334 16.6667C24.3334 16.3573 24.4112 16.0488 24.5667 15.7411C24.7223 15.4334 24.8966 15.1505 25.0898 14.8924C25.283 14.6343 25.4701 14.4103 25.6513 14.2206C25.8325 14.0309 25.9487 13.9061 26 13.8462C26.0513 13.9061 26.1676 14.0309 26.3488 14.2206C26.5299 14.4103 26.7171 14.6343 26.9103 14.8924C27.1034 15.1505 27.2778 15.4334 27.4333 15.7411C27.5889 16.0488 27.6667 16.3573 27.6667 16.6667C27.6667 17.1283 27.5043 17.5214 27.1795 17.8462C26.8547 18.171 26.4616 18.3334 26 18.3334ZM12.1026 27.3334C10.4377 27.3334 9.02144 26.7496 7.85393 25.5821C6.68642 24.4146 6.10266 22.9983 6.10266 21.3334C6.10266 20.3351 6.33599 19.4026 6.80266 18.5359C7.26933 17.6693 7.92488 16.9437 8.76933 16.359V8.00005C8.76933 7.06845 9.09197 6.27999 9.73726 5.63468C10.3826 4.98939 11.171 4.66675 12.1026 4.66675C13.0342 4.66675 13.8227 4.98939 14.468 5.63468C15.1133 6.27999 15.4359 7.06845 15.4359 8.00005V16.359C16.2803 16.9437 16.9359 17.6693 17.4026 18.5359C17.8692 19.4026 18.1026 20.3351 18.1026 21.3334C18.1026 22.9983 17.5188 24.4146 16.3513 25.5821C15.1838 26.7496 13.7676 27.3334 12.1026 27.3334ZM8.10259 21.3334H16.1026C16.1026 20.6804 15.9445 20.0612 15.6282 19.4757C15.312 18.8902 14.8599 18.3829 14.2718 17.9539L13.4359 17.3334V8.00005C13.4359 7.62227 13.3082 7.3056 13.0526 7.05005C12.797 6.79449 12.4804 6.66672 12.1026 6.66672C11.7248 6.66672 11.4082 6.79449 11.1526 7.05005C10.897 7.3056 10.7693 7.62227 10.7693 8.00005V17.3334L9.9334 17.9539C9.34535 18.3829 8.89321 18.8902 8.57696 19.4757C8.26072 20.0612 8.10259 20.6804 8.10259 21.3334Z" fill="#1C1B1F"/>
</g>
</svg>
