<svg width="51" height="51" viewBox="0 0 51 51" fill="none" xmlns="http://www.w3.org/2000/svg">
<rect width="51" height="51" rx="20" fill="white"/>
<path fill-rule="evenodd" clip-rule="evenodd" d="M18.235 9H18.6235C19.3167 9 19.8787 9.56199 19.8787 10.2552C19.8787 10.9485 19.3167 11.5105 18.6235 11.5105H18.2887C16.862 11.5105 15.8675 11.5114 15.0932 11.5747C14.3336 11.6368 13.8972 11.7525 13.5666 11.9209C12.858 12.2819 12.2819 12.858 11.9209 13.5666C11.7525 13.8972 11.6368 14.3336 11.5747 15.0932C11.5114 15.8675 11.5105 16.862 11.5105 18.2887V18.6235C11.5105 19.3167 10.9485 19.8787 10.2552 19.8787C9.56198 19.8787 9 19.3167 9 18.6235V18.235C8.99998 16.8746 8.99997 15.7773 9.07257 14.8888C9.14731 13.9739 9.30524 13.1703 9.68405 12.4269C10.2858 11.2459 11.2459 10.2858 12.4268 9.68407C13.1703 9.30526 13.9739 9.14733 14.8888 9.07257C15.7773 8.99998 16.8746 8.99998 18.235 9ZM35.5428 11.5747C34.7686 11.5114 33.7741 11.5105 32.3474 11.5105H32.0126C31.3194 11.5105 30.7574 10.9485 30.7574 10.2552C30.7574 9.56199 31.3194 9 32.0126 9H32.4011C33.7616 8.99998 34.8588 8.99998 35.7474 9.07257C36.6622 9.14733 37.4659 9.30526 38.2093 9.68407C39.3902 10.2858 40.3504 11.2459 40.9521 12.4269C41.3308 13.1703 41.4888 13.9739 41.5635 14.8888C41.6361 15.7773 41.6361 16.8746 41.6361 18.235V18.6235C41.6361 19.3167 41.0741 19.8787 40.3809 19.8787C39.6876 19.8787 39.1256 19.3167 39.1256 18.6235V18.2887C39.1256 16.862 39.1246 15.8675 39.0614 15.0932C38.9993 14.3336 38.8836 13.8972 38.7152 13.5666C38.3542 12.858 37.7782 12.2819 37.0695 11.9209C36.739 11.7525 36.3025 11.6368 35.5428 11.5747ZM17.7866 17.3682C18.4799 17.3682 19.0419 17.9302 19.0419 18.6235V21.1339C19.0419 21.8272 18.4799 22.3892 17.7866 22.3892C17.0934 22.3892 16.5314 21.8272 16.5314 21.1339V18.6235C16.5314 17.9302 17.0934 17.3682 17.7866 17.3682ZM26.1549 17.3682C26.8481 17.3682 27.4101 17.9302 27.4101 18.6235V23.8119C27.4101 25.8441 25.6765 27.5776 23.6444 27.5776C22.9512 27.5776 22.3892 27.0156 22.3892 26.3224C22.3892 25.6292 22.9512 25.0672 23.6444 25.0672C24.2901 25.0672 24.8996 24.4576 24.8996 23.8119V18.6235C24.8996 17.9302 25.4616 17.3682 26.1549 17.3682ZM32.8494 17.3682C33.5427 17.3682 34.1047 17.9302 34.1047 18.6235V21.1339C34.1047 21.8272 33.5427 22.3892 32.8494 22.3892C32.1562 22.3892 31.5942 21.8272 31.5942 21.1339V18.6235C31.5942 17.9302 32.1562 17.3682 32.8494 17.3682ZM18.9078 29.786C19.398 29.2958 20.1927 29.2958 20.6829 29.786C23.2052 32.3084 27.2642 32.3084 29.7865 29.786C30.2767 29.2958 31.0714 29.2958 31.5616 29.786C32.0518 30.2762 32.0518 31.0711 31.5616 31.5613C28.0588 35.064 22.4106 35.064 18.9078 31.5613C18.4176 31.0711 18.4176 30.2762 18.9078 29.786ZM10.2552 30.7574C10.9485 30.7574 11.5105 31.3194 11.5105 32.0126V32.3474C11.5105 33.7742 11.5114 34.7686 11.5747 35.5429C11.6368 36.3025 11.7525 36.739 11.9209 37.0696C12.2819 37.778 12.858 38.3541 13.5666 38.7153C13.8972 38.8836 14.3336 38.9993 15.0932 39.0614C15.8675 39.1246 16.862 39.1256 18.2887 39.1256H18.6235C19.3167 39.1256 19.8787 39.6877 19.8787 40.3809C19.8787 41.0741 19.3167 41.6361 18.6235 41.6361H18.235C16.8746 41.6361 15.7773 41.6361 14.8888 41.5635C13.9739 41.4888 13.1703 41.3308 12.4268 40.9521C11.2459 40.3502 10.2858 39.3902 9.68405 38.2093C9.30524 37.4657 9.14731 36.6622 9.07257 35.7474C8.99997 34.8588 8.99998 33.7614 9 32.4011V32.0126C9 31.3194 9.56198 30.7574 10.2552 30.7574ZM40.3809 30.7574C41.0741 30.7574 41.6361 31.3194 41.6361 32.0126V32.4011C41.6361 33.7616 41.6361 34.8588 41.5635 35.7474C41.4888 36.6622 41.3308 37.4657 40.9521 38.2093C40.3504 39.3902 39.3902 40.3502 38.2093 40.9521C37.4659 41.3308 36.6622 41.4888 35.7474 41.5635C34.8588 41.6361 33.7616 41.6361 32.4011 41.6361H32.0126C31.3194 41.6361 30.7574 41.0741 30.7574 40.3809C30.7574 39.6877 31.3194 39.1256 32.0126 39.1256H32.3474C33.7741 39.1256 34.7686 39.1246 35.5428 39.0614C36.3025 38.9993 36.739 38.8836 37.0695 38.7153C37.7782 38.3541 38.3542 37.778 38.7152 37.0696C38.8836 36.739 38.9993 36.3025 39.0614 35.5429C39.1246 34.7686 39.1256 33.7742 39.1256 32.3474V32.0126C39.1256 31.3194 39.6876 30.7574 40.3809 30.7574Z" fill="black"/>
</svg>
