<svg width="51" height="51" viewBox="0 0 51 51" fill="none" xmlns="http://www.w3.org/2000/svg">
<rect width="51" height="51" rx="20" fill="white"/>
<path d="M16.2525 8.74787C18.8454 7.01221 21.9636 6 25.3181 6C32.7575 6 39.0341 10.9783 40.9982 17.7853" stroke="black" stroke-width="3.62623" stroke-linecap="round" stroke-linejoin="round"/>
<path d="M41.6361 42.2623V27.7574" stroke="black" stroke-width="3.62623" stroke-linecap="round" stroke-linejoin="round"/>
<path d="M9 42.2623V22.318C9 20.4108 9.3272 18.58 9.92853 16.8787" stroke="black" stroke-width="3.62623" stroke-linecap="round" stroke-linejoin="round"/>
<path d="M36.1967 42.2623V22.862C36.1967 16.5534 31.3262 11.4393 25.318 11.4393C19.3099 11.4393 14.4393 16.5534 14.4393 22.862V27.7574" stroke="black" stroke-width="3.62623" stroke-linecap="round" stroke-linejoin="round"/>
<path d="M14.4393 42.2623V35.0099" stroke="black" stroke-width="3.62623" stroke-linecap="round" stroke-linejoin="round"/>
<path d="M19.8787 42.2623V22.59C19.8787 19.4357 22.3139 16.8787 25.318 16.8787C26.8869 16.8787 28.3006 17.5761 29.2935 18.6918" stroke="black" stroke-width="3.62623" stroke-linecap="round" stroke-linejoin="round"/>
<path d="M30.7574 42.2623V27.7574" stroke="black" stroke-width="3.62623" stroke-linecap="round" stroke-linejoin="round"/>
<path d="M25.3181 42.2623V35.9164" stroke="black" stroke-width="3.62623" stroke-linecap="round" stroke-linejoin="round"/>
<path d="M25.3181 22.3181V27.7574" stroke="black" stroke-width="3.62623" stroke-linecap="round" stroke-linejoin="round"/>
</svg>
