<svg width="32" height="32" viewBox="0 0 32 32" fill="none" xmlns="http://www.w3.org/2000/svg">
<mask id="mask0_63_1164" style="mask-type:alpha" maskUnits="userSpaceOnUse" x="0" y="0" width="32" height="32">
<rect width="32" height="32" fill="#D9D9D9"/>
</mask>
<g mask="url(#mask0_63_1164)">
<path d="M1.33331 17.3334V14.6667H9.33331V17.3334H1.33331ZM10.3333 12.2L7.53331 9.40004L9.39998 7.53337L12.2 10.3334L10.3333 12.2ZM14.6666 9.33337V1.33337H17.3333V9.33337H14.6666ZM21.6666 12.2L19.8 10.3334L22.6 7.53337L24.4666 9.40004L21.6666 12.2ZM22.6666 17.3334V14.6667H30.6666V17.3334H22.6666ZM16 20C14.8889 20 13.9444 19.6112 13.1666 18.8334C12.3889 18.0556 12 17.1112 12 16C12 14.8889 12.3889 13.9445 13.1666 13.1667C13.9444 12.3889 14.8889 12 16 12C17.1111 12 18.0555 12.3889 18.8333 13.1667C19.6111 13.9445 20 14.8889 20 16C20 17.1112 19.6111 18.0556 18.8333 18.8334C18.0555 19.6112 17.1111 20 16 20ZM22.6 24.4667L19.8 21.6667L21.6666 19.8L24.4666 22.6L22.6 24.4667ZM9.39998 24.4667L7.53331 22.6L10.3333 19.8L12.2 21.6667L9.39998 24.4667ZM14.6666 30.6667V22.6667H17.3333V30.6667H14.6666Z" fill="#1C1B1F"/>
</g>
</svg>
