<svg width="87" height="88" viewBox="0 0 87 88" fill="none" xmlns="http://www.w3.org/2000/svg">
<path d="M43.0364 0.963623C19.2623 0.963623 0 20.2259 0 44C0 67.7741 19.2623 87.0364 43.0364 87.0364C66.8105 87.0364 86.0728 67.7741 86.0728 44C86.0728 20.2259 66.8105 0.963623 43.0364 0.963623ZM67.5741 68.5377C61.0145 75.0973 52.3031 78.7068 43.0364 78.7068C33.7697 78.7068 25.0583 75.0973 18.4987 68.5377C11.9391 61.9781 8.32962 53.2667 8.32962 44C8.32962 34.7333 11.9391 26.0219 18.4987 19.4623C25.0583 12.9027 33.7697 9.29325 43.0364 9.29325C52.3031 9.29325 61.0145 12.9027 67.5741 19.4623C74.1336 26.0219 77.7431 34.7333 77.7431 44C77.7431 53.2667 74.1336 61.9781 67.5741 68.5377ZM56.9191 25.9525C52.789 25.9525 47.7739 31.037 47.2012 38.3428C47.0797 39.8352 49.0754 40.4079 49.7868 39.1237L51.4354 36.1736C52.7716 33.7962 54.7673 32.4253 56.9017 32.4253C59.0362 32.4253 61.0318 33.7962 62.368 36.1736L64.0166 39.1237C64.7281 40.4079 66.7237 39.8178 66.6023 38.3428C66.0643 31.037 61.0492 25.9525 56.9191 25.9525ZM22.0388 39.1237L23.6874 36.1736C25.0236 33.7962 27.0192 32.4253 29.1537 32.4253C31.2881 32.4253 33.2838 33.7962 34.62 36.1736L36.2686 39.1237C36.9801 40.4079 38.9757 39.8178 38.8542 38.3428C38.2816 31.037 33.2664 25.9525 29.1363 25.9525C25.0062 25.9525 19.9911 31.037 19.4184 38.3428C19.3143 39.8178 21.31 40.4079 22.0388 39.1237ZM62.8887 49.5531H23.1841C21.7611 49.5531 20.6679 50.7678 20.8414 52.1561C22.1429 62.4293 31.0626 70.3772 41.8564 70.3772H44.2164C55.0102 70.3772 63.9299 62.4293 65.2314 52.1561C65.4049 50.7678 64.3116 49.5531 62.8887 49.5531Z" fill="black"/>
</svg>
