<svg width="89" height="89" viewBox="0 0 89 89" fill="none" xmlns="http://www.w3.org/2000/svg">
<mask id="mask0_55_261" style="mask-type:alpha" maskUnits="userSpaceOnUse" x="0" y="0" width="89" height="89">
<rect width="89" height="89" fill="#D9D9D9"/>
</mask>
<g mask="url(#mask0_55_261)">
<path d="M44.5 77.8749C36.7937 77.8749 30.2317 75.2136 24.8141 69.891C19.3964 64.5685 16.6876 58.0888 16.6876 50.4521C16.6876 46.8074 17.4091 43.321 18.8521 39.993C20.295 36.665 22.2882 33.7126 24.8317 31.1358L44.5 11.8383L64.1684 31.1358C66.7119 33.7126 68.7051 36.6655 70.148 39.9945C71.591 43.3234 72.3124 46.8115 72.3124 50.4588C72.3124 58.1009 69.6036 64.5808 64.186 69.8985C58.7684 75.2161 52.2064 77.8749 44.5 77.8749ZM22.25 50.469H66.75C66.75 47.5642 66.1938 44.794 65.0813 42.1586C63.9688 39.5233 62.3618 37.2134 60.2604 35.2292L44.5 19.6542L28.7396 35.2292C26.6382 37.2134 25.0313 39.5233 23.9188 42.1586C22.8063 44.794 22.25 47.5642 22.25 50.469Z" fill="#1C1B1F"/>
</g>
</svg>
