<svg width="32" height="32" viewBox="0 0 32 32" fill="none" xmlns="http://www.w3.org/2000/svg">
<mask id="mask0_60_1007" style="mask-type:alpha" maskUnits="userSpaceOnUse" x="0" y="0" width="32" height="32">
<rect width="32" height="32" fill="#D9D9D9"/>
</mask>
<g mask="url(#mask0_60_1007)">
<path d="M16 27.7435C13.2291 27.7435 10.8698 26.7866 8.92187 24.8729C6.97396 22.9592 6 20.6294 6 17.8836C6 16.5731 6.25941 15.3196 6.77823 14.123C7.29703 12.9265 8.01369 11.8649 8.9282 10.9384L16 4L23.0717 10.9384C23.9862 11.8649 24.7029 12.9266 25.2217 14.1236C25.7405 15.3205 25.9999 16.5746 25.9999 17.886C25.9999 20.6337 25.026 22.9636 23.0781 24.8756C21.1302 26.7875 18.7708 27.7435 16 27.7435ZM7.99997 17.8897H24C24 16.8453 23.8 15.8493 23.4 14.9017C23 13.9541 22.4222 13.1236 21.6666 12.4102L16 6.8102L10.3333 12.4102C9.57774 13.1236 8.99997 13.9541 8.59997 14.9017C8.19997 15.8493 7.99997 16.8453 7.99997 17.8897Z" fill="#1C1B1F"/>
</g>
</svg>
