<svg width="76" height="76" viewBox="0 0 76 76" fill="none" xmlns="http://www.w3.org/2000/svg">
<mask id="mask0_60_508" style="mask-type:alpha" maskUnits="userSpaceOnUse" x="0" y="0" width="76" height="76">
<rect width="75.1508" height="75.1508" fill="#D9D9D9"/>
</mask>
<g mask="url(#mask0_60_508)">
<path d="M16.6199 64.1912C15.0382 64.1912 13.6993 63.6433 12.6034 62.5473C11.5074 61.4514 10.9595 60.1125 10.9595 58.5308V16.62C10.9595 15.0383 11.5074 13.6995 12.6034 12.6035C13.6993 11.5076 15.0382 10.9596 16.6199 10.9596H58.5307C60.1124 10.9596 61.4512 11.5076 62.5472 12.6035C63.6431 13.6995 64.1911 15.0383 64.1911 16.62V58.5308C64.1911 60.1125 63.6431 61.4514 62.5472 62.5473C61.4512 63.6433 60.1124 64.1912 58.5307 64.1912H16.6199ZM16.6199 59.4944H58.5307C58.7716 59.4944 58.9924 59.394 59.1932 59.1933C59.3939 58.9926 59.4943 58.7717 59.4943 58.5308V16.62C59.4943 16.3791 59.3939 16.1583 59.1932 15.9575C58.9924 15.7568 58.7716 15.6564 58.5307 15.6564H16.6199C16.379 15.6564 16.1582 15.7568 15.9574 15.9575C15.7567 16.1583 15.6563 16.3791 15.6563 16.62V58.5308C15.6563 58.7717 15.7567 58.9926 15.9574 59.1933C16.1582 59.394 16.379 59.4944 16.6199 59.4944ZM21.1362 52.4489H54.2552L43.9583 38.7196L35.1666 50.1607L28.9041 42.152L21.1362 52.4489ZM26.6158 30.53C27.6997 30.53 28.623 30.1486 29.3857 29.3859C30.1485 28.6231 30.5298 27.6998 30.5298 26.6159C30.5298 25.532 30.1485 24.6087 29.3857 23.846C28.623 23.0833 27.6997 22.7019 26.6158 22.7019C25.5319 22.7019 24.6086 23.0833 23.8459 23.846C23.0831 24.6087 22.7018 25.532 22.7018 26.6159C22.7018 27.6998 23.0831 28.6231 23.8459 29.3859C24.6086 30.1486 25.5319 30.53 26.6158 30.53Z" fill="#1C1B1F"/>
</g>
</svg>
