<svg width="89" height="89" viewBox="0 0 89 89" fill="none" xmlns="http://www.w3.org/2000/svg">
<mask id="mask0_62_1060" style="mask-type:alpha" maskUnits="userSpaceOnUse" x="0" y="0" width="89" height="89">
<rect width="89" height="89" fill="#D9D9D9"/>
</mask>
<g mask="url(#mask0_62_1060)">
<path d="M3.70837 48.2083V40.7917H25.9584V48.2083H3.70837ZM28.7396 33.9313L20.9521 26.1438L26.1438 20.9521L33.9313 28.7396L28.7396 33.9313ZM40.7917 25.9583V3.70834H48.2084V25.9583H40.7917ZM60.2605 33.9313L55.0688 28.7396L62.8563 20.9521L68.048 26.1438L60.2605 33.9313ZM63.0417 48.2083V40.7917H85.2917V48.2083H63.0417ZM44.5 55.625C41.4098 55.625 38.783 54.5434 36.6198 52.3802C34.4566 50.217 33.375 47.5903 33.375 44.5C33.375 41.4097 34.4566 38.783 36.6198 36.6198C38.783 34.4566 41.4098 33.375 44.5 33.375C47.5903 33.375 50.2171 34.4566 52.3803 36.6198C54.5434 38.783 55.625 41.4097 55.625 44.5C55.625 47.5903 54.5434 50.217 52.3803 52.3802C50.2171 54.5434 47.5903 55.625 44.5 55.625ZM62.8563 68.0479L55.0688 60.2604L60.2605 55.0688L68.048 62.8563L62.8563 68.0479ZM26.1438 68.0479L20.9521 62.8563L28.7396 55.0688L33.9313 60.2604L26.1438 68.0479ZM40.7917 85.2917V63.0417H48.2084V85.2917H40.7917Z" fill="#1C1B1F"/>
</g>
</svg>
