<svg width="89" height="89" viewBox="0 0 89 89" fill="none" xmlns="http://www.w3.org/2000/svg">
<mask id="mask0_60_1027" style="mask-type:alpha" maskUnits="userSpaceOnUse" x="0" y="0" width="89" height="89">
<rect width="89" height="89" fill="#D9D9D9"/>
</mask>
<g mask="url(#mask0_60_1027)">
<path d="M29.6666 66.75C28.6159 66.75 27.7352 66.3946 27.0244 65.6839C26.3137 64.9731 25.9583 64.0924 25.9583 63.0417C25.9583 61.991 26.3137 61.1102 27.0244 60.3995C27.7352 59.6887 28.6159 59.3333 29.6666 59.3333C30.7173 59.3333 31.5981 59.6887 32.3088 60.3995C33.0196 61.1102 33.375 61.991 33.375 63.0417C33.375 64.0924 33.0196 64.9731 32.3088 65.6839C31.5981 66.3946 30.7173 66.75 29.6666 66.75ZM44.5 66.75C43.4493 66.75 42.5685 66.3946 41.8578 65.6839C41.147 64.9731 40.7916 64.0924 40.7916 63.0417C40.7916 61.991 41.147 61.1102 41.8578 60.3995C42.5685 59.6887 43.4493 59.3333 44.5 59.3333C45.5507 59.3333 46.4314 59.6887 47.1421 60.3995C47.8529 61.1102 48.2083 61.991 48.2083 63.0417C48.2083 64.0924 47.8529 64.9731 47.1421 65.6839C46.4314 66.3946 45.5507 66.75 44.5 66.75ZM59.3333 66.75C58.2826 66.75 57.4019 66.3946 56.6911 65.6839C55.9803 64.9731 55.625 64.0924 55.625 63.0417C55.625 61.991 55.9803 61.1102 56.6911 60.3995C57.4019 59.6887 58.2826 59.3333 59.3333 59.3333C60.384 59.3333 61.2647 59.6887 61.9755 60.3995C62.6862 61.1102 63.0416 61.991 63.0416 63.0417C63.0416 64.0924 62.6862 64.9731 61.9755 65.6839C61.2647 66.3946 60.384 66.75 59.3333 66.75ZM18.5416 51.9167V44.5C18.5416 37.9486 20.643 32.2625 24.8458 27.4417C29.0486 22.6208 34.3638 19.7778 40.7916 18.9125V11.125H48.2083V18.9125C54.6361 19.7778 59.9514 22.6208 64.1541 27.4417C68.3569 32.2625 70.4583 37.9486 70.4583 44.5V51.9167H18.5416ZM25.9583 44.5H63.0416C63.0416 39.3701 61.2338 34.9974 57.6182 31.3818C54.0026 27.7661 49.6298 25.9583 44.5 25.9583C39.3701 25.9583 34.9974 27.7661 31.3817 31.3818C27.7661 34.9974 25.9583 39.3701 25.9583 44.5ZM29.6666 77.875C28.6159 77.875 27.7352 77.5196 27.0244 76.8089C26.3137 76.0981 25.9583 75.2174 25.9583 74.1667C25.9583 73.116 26.3137 72.2352 27.0244 71.5245C27.7352 70.8137 28.6159 70.4583 29.6666 70.4583C30.7173 70.4583 31.5981 70.8137 32.3088 71.5245C33.0196 72.2352 33.375 73.116 33.375 74.1667C33.375 75.2174 33.0196 76.0981 32.3088 76.8089C31.5981 77.5196 30.7173 77.875 29.6666 77.875ZM44.5 77.875C43.4493 77.875 42.5685 77.5196 41.8578 76.8089C41.147 76.0981 40.7916 75.2174 40.7916 74.1667C40.7916 73.116 41.147 72.2352 41.8578 71.5245C42.5685 70.8137 43.4493 70.4583 44.5 70.4583C45.5507 70.4583 46.4314 70.8137 47.1421 71.5245C47.8529 72.2352 48.2083 73.116 48.2083 74.1667C48.2083 75.2174 47.8529 76.0981 47.1421 76.8089C46.4314 77.5196 45.5507 77.875 44.5 77.875ZM59.3333 77.875C58.2826 77.875 57.4019 77.5196 56.6911 76.8089C55.9803 76.0981 55.625 75.2174 55.625 74.1667C55.625 73.116 55.9803 72.2352 56.6911 71.5245C57.4019 70.8137 58.2826 70.4583 59.3333 70.4583C60.384 70.4583 61.2647 70.8137 61.9755 71.5245C62.6862 72.2352 63.0416 73.116 63.0416 74.1667C63.0416 75.2174 62.6862 76.0981 61.9755 76.8089C61.2647 77.5196 60.384 77.875 59.3333 77.875Z" fill="#1C1B1F"/>
</g>
</svg>
