<svg width="89" height="89" viewBox="0 0 89 89" fill="none" xmlns="http://www.w3.org/2000/svg">
<mask id="mask0_63_1070" style="mask-type:alpha" maskUnits="userSpaceOnUse" x="0" y="0" width="89" height="89">
<rect width="89" height="89" fill="#D9D9D9"/>
</mask>
<g mask="url(#mask0_63_1070)">
<path d="M40.7917 55.625C39.741 55.625 38.8602 55.2696 38.1495 54.5589C37.4387 53.8481 37.0833 52.9674 37.0833 51.9167V37.0833C37.0833 36.0326 37.4387 35.1519 38.1495 34.4411C38.8602 33.7304 39.741 33.375 40.7917 33.375H51.9167C52.9674 33.375 53.8481 33.7304 54.5589 34.4411C55.2696 35.1519 55.625 36.0326 55.625 37.0833V51.9167C55.625 52.9674 55.2696 53.8481 54.5589 54.5589C53.8481 55.2696 52.9674 55.625 51.9167 55.625H40.7917ZM42.6458 50.0625H50.0625V38.9375H42.6458V50.0625ZM14.8333 55.625C13.7826 55.625 12.9019 55.2696 12.1911 54.5589C11.4804 53.8481 11.125 52.9674 11.125 51.9167V37.0833C11.125 36.0326 11.4804 35.1519 12.1911 34.4411C12.9019 33.7304 13.7826 33.375 14.8333 33.375H25.9583C27.009 33.375 27.8898 33.7304 28.6005 34.4411C29.3113 35.1519 29.6667 36.0326 29.6667 37.0833V40.7917H24.1042V38.9375H16.6875V50.0625H24.1042V48.2083H29.6667V51.9167C29.6667 52.9674 29.3113 53.8481 28.6005 54.5589C27.8898 55.2696 27.009 55.625 25.9583 55.625H14.8333ZM63.0417 66.75V57.4792C63.0417 56.4285 63.397 55.5477 64.1078 54.837C64.8186 54.1262 65.6993 53.7708 66.75 53.7708H74.1667V50.0625H63.0417V44.5H76.0208C77.0715 44.5 77.9523 44.8554 78.663 45.5661C79.3738 46.2769 79.7292 47.1576 79.7292 48.2083V53.7708C79.7292 54.8215 79.3738 55.7023 78.663 56.413C77.9523 57.1238 77.0715 57.4792 76.0208 57.4792H68.6042V61.1875H79.7292V66.75H63.0417Z" fill="#1C1B1F"/>
</g>
</svg>
