<svg width="90" height="89" viewBox="0 0 90 89" fill="none" xmlns="http://www.w3.org/2000/svg">
<mask id="mask0_60_1033" style="mask-type:alpha" maskUnits="userSpaceOnUse" x="0" y="0" width="90" height="89">
<rect x="0.5" width="89" height="89" fill="#D9D9D9"/>
</mask>
<g mask="url(#mask0_60_1033)">
<path d="M39.8083 81.5833C36.6562 81.5833 34.2612 80.6408 32.6234 78.7557C30.9855 76.8707 30.1666 74.7229 30.1666 72.3125C30.1666 70.7055 30.522 69.145 31.2328 67.6307C31.9435 66.1165 33.0406 64.8649 34.5239 63.876C35.8836 63.0108 36.9807 61.8983 37.8151 60.5385C38.6494 59.1788 39.2211 57.7264 39.5302 56.1812L38.4177 55.625C38.0468 55.4396 37.7069 55.2233 37.3979 54.976L28.8687 58.0354C27.818 58.4062 26.7982 58.7153 25.8093 58.9625C24.8204 59.2097 23.8007 59.3333 22.75 59.3333C18.8562 59.3333 15.4105 57.6337 12.413 54.2344C9.41541 50.8351 7.91663 45.8597 7.91663 39.3083C7.91663 36.1562 8.85916 33.7613 10.7442 32.1234C12.6293 30.4856 14.7461 29.6667 17.0948 29.6667C18.7017 29.6667 20.2777 30.022 21.8229 30.7328C23.368 31.4436 24.635 32.5406 25.6239 34.0239C26.4892 35.3837 27.6017 36.4807 28.9614 37.3151C30.3211 38.1495 31.7736 38.7212 33.3187 39.0302L33.875 37.9177C34.0604 37.5469 34.2767 37.2069 34.5239 36.8979L31.4645 28.3687C31.0937 27.318 30.7847 26.2983 30.5375 25.3094C30.2902 24.3205 30.1666 23.3316 30.1666 22.3427C30.1666 18.3871 31.8663 14.9106 35.2656 11.913C38.6649 8.91544 43.6402 7.41666 50.1916 7.41666C53.3437 7.41666 55.7387 8.35919 57.3765 10.2443C59.0144 12.1293 59.8333 14.2462 59.8333 16.5948C59.8333 18.2017 59.4779 19.7778 58.7671 21.3229C58.0564 22.868 56.9593 24.1351 55.476 25.1239C54.1163 25.9892 53.0192 27.1017 52.1849 28.4614C51.3505 29.8212 50.7788 31.2736 50.4698 32.8187L51.5823 33.375C51.9531 33.5604 52.293 33.7767 52.602 34.0239L61.1312 30.8719C62.1819 30.501 63.1862 30.2075 64.1442 29.9911C65.1022 29.7748 66.1066 29.6667 67.1572 29.6667C72.1635 29.6667 75.9027 31.7371 78.375 35.8781C80.8472 40.0191 82.0833 44.6236 82.0833 49.6917C82.0833 52.8437 81.0944 55.2387 79.1166 56.8766C77.1388 58.5144 74.9448 59.3333 72.5343 59.3333C70.9892 59.3333 69.4904 58.9779 68.038 58.2672C66.5855 57.5564 65.3649 56.4594 64.376 54.976C63.5107 53.6163 62.3982 52.5193 61.0385 51.6849C59.6788 50.8505 58.2263 50.2788 56.6812 49.9698L56.125 51.0823C55.9395 51.4531 55.7232 51.793 55.476 52.1021L58.5354 60.6312C58.9062 61.6201 59.2152 62.5627 59.4625 63.4588C59.7097 64.355 59.8333 65.2976 59.8333 66.2864C59.8951 70.3038 58.2263 73.8576 54.827 76.9479C51.4277 80.0382 46.4215 81.5833 39.8083 81.5833ZM45 50.0625C46.5451 50.0625 47.8585 49.5217 48.9401 48.4401C50.0217 47.3585 50.5625 46.0451 50.5625 44.5C50.5625 42.9548 50.0217 41.6415 48.9401 40.5599C47.8585 39.4783 46.5451 38.9375 45 38.9375C43.4548 38.9375 42.1415 39.4783 41.0599 40.5599C39.9783 41.6415 39.4375 42.9548 39.4375 44.5C39.4375 46.0451 39.9783 47.3585 41.0599 48.4401C42.1415 49.5217 43.4548 50.0625 45 50.0625ZM40.7354 32.2625C41.1062 32.1389 41.4925 32.0307 41.8942 31.938C42.296 31.8453 42.6823 31.768 43.0531 31.7062C43.5475 29.1104 44.4901 26.7 45.8807 24.475C47.2713 22.25 49.11 20.3958 51.3968 18.9125C51.7059 18.6653 51.9531 18.3562 52.1385 17.9854C52.3239 17.6146 52.4166 17.151 52.4166 16.5948C52.4166 16.1003 52.2312 15.6831 51.8604 15.3432C51.4895 15.0033 50.9333 14.8333 50.1916 14.8333C47.843 14.8333 45.1854 15.3432 42.2187 16.363C39.252 17.3828 37.7069 19.376 37.5833 22.3427C37.5833 22.8989 37.6605 23.4243 37.8151 23.9187C37.9696 24.4132 38.1086 24.8767 38.2323 25.3094L40.7354 32.2625ZM22.75 51.9167C23.6152 51.9167 24.635 51.7003 25.8093 51.2677L32.7625 48.7646C32.6388 48.3937 32.5307 48.0075 32.438 47.6057C32.3453 47.204 32.268 46.8177 32.2062 46.4469C29.6104 45.9524 27.2 45.0099 24.975 43.6193C22.75 42.2286 20.8958 40.3899 19.4125 38.1031C19.1652 37.7941 18.8408 37.5469 18.439 37.3614C18.0373 37.176 17.5892 37.0833 17.0948 37.0833C16.5385 37.0833 16.1059 37.2687 15.7968 37.6396C15.4878 38.0104 15.3333 38.5667 15.3333 39.3083C15.3333 42.6458 15.9668 45.5816 17.2338 48.1156C18.5008 50.6496 20.3395 51.9167 22.75 51.9167ZM39.8083 74.1667C42.7132 74.1667 45.5717 73.5795 48.3838 72.4052C51.196 71.2309 52.5402 69.1913 52.4166 66.2864C52.4166 65.792 52.3394 65.3285 52.1849 64.8958C52.0303 64.4632 51.8913 64.0614 51.7677 63.6906L49.2645 56.7375C48.8937 56.8611 48.5074 56.9693 48.1057 57.062C47.704 57.1547 47.3177 57.2319 46.9468 57.2937C46.4524 59.8896 45.5099 62.3 44.1192 64.525C42.7286 66.75 40.8899 68.6042 38.6031 70.0875C38.2941 70.3347 38.0314 70.6592 37.8151 71.0609C37.5987 71.4627 37.5215 71.8799 37.5833 72.3125C37.6451 72.8069 37.8305 73.2396 38.1395 73.6104C38.4486 73.9812 39.0048 74.1667 39.8083 74.1667ZM72.5343 51.9167C73.0906 51.9167 73.585 51.7621 74.0177 51.4531C74.4503 51.1441 74.6666 50.5569 74.6666 49.6917C74.6666 47.343 74.1722 44.67 73.1833 41.6724C72.1944 38.6748 70.1857 37.1451 67.1572 37.0833C66.601 37.0833 66.0757 37.1451 65.5812 37.2687C65.0868 37.3924 64.6232 37.516 64.1906 37.6396L57.2375 40.2354C57.3611 40.6062 57.4692 40.9925 57.5619 41.3943C57.6546 41.796 57.7319 42.1823 57.7937 42.5531C60.3895 43.0476 62.8 43.9901 65.025 45.3807C67.25 46.7713 69.1041 48.6101 70.5875 50.8969C70.7729 51.2059 71.051 51.4531 71.4218 51.6385C71.7927 51.8239 72.1635 51.9167 72.5343 51.9167Z" fill="#1C1B1F"/>
</g>
</svg>
