<svg width="58" height="35" viewBox="0 0 58 35" fill="none" xmlns="http://www.w3.org/2000/svg">
<path d="M56.2539 14.9936C56.0329 14.5003 55.4014 14.4806 55.137 14.9463C53.9134 17.0736 51.723 18.3997 49.2207 18.3997H46.0632C41.8796 18.3997 38.4853 21.794 38.4853 25.9776C38.4853 26.2539 38.5169 26.5183 38.5445 26.7867C41.0626 24.983 44.6976 23.4517 49.8522 23.4517C50.1995 23.4517 50.4837 23.7358 50.4837 24.0832C50.4837 24.4305 50.1995 24.7146 49.8522 24.7146C39.9299 24.7146 35.7226 30.7967 34.7911 33.0819C34.5306 33.7252 34.8385 34.4593 35.4818 34.7238C36.1291 34.9922 36.8632 34.6804 37.1316 34.041C37.1908 33.8989 37.9565 32.1505 39.9693 30.4652C41.2481 32.1978 43.6793 33.8515 46.8723 33.5121C53.0688 33.0622 57.4301 27.505 57.4301 20.7007C57.4301 18.7194 57.0038 16.6671 56.2539 14.9936Z" fill="#79AC78"/>
<path d="M0 0.302795C36.9897 -0.0200087 28.6073 24.6296 28.6791 28.4243L35 34.6972L32.9863 34.7148L27.4858 29.248C24.4681 29.5996 17.8744 32.0041 10.8557 26.5273C3.82145 21.0506 4.15084 14.4176 0 0.302795ZM6.20379 3.81159C2.33868 2.02512 5.80727 4.52763 5.80727 4.52763C9.32906 6.9135 10.9687 10.191 12.8742 13.7528C15.3546 18.394 19.0871 24.5191 24.1557 26.6436C29.2088 28.7682 26.8129 27.5886 24.6147 25.9812C22.4163 24.3583 19.2738 19.2892 17.4788 15.9588C14.9831 11.3333 12.6742 6.81459 6.20379 3.81159Z" fill="#79AC78"/>
</svg>
