<svg width="32" height="32" viewBox="0 0 32 32" fill="none" xmlns="http://www.w3.org/2000/svg">
<mask id="mask0_63_1155" style="mask-type:alpha" maskUnits="userSpaceOnUse" x="0" y="0" width="32" height="32">
<rect width="32" height="32" fill="#D9D9D9"/>
</mask>
<g mask="url(#mask0_63_1155)">
<path d="M14.1334 29.3333C13 29.3333 12.1389 28.9944 11.55 28.3166C10.9611 27.6388 10.6667 26.8666 10.6667 26C10.6667 25.4222 10.7945 24.8611 11.05 24.3166C11.3056 23.7722 11.7 23.3222 12.2334 22.9666C12.7222 22.6555 13.1167 22.2555 13.4167 21.7666C13.7167 21.2777 13.9222 20.7555 14.0334 20.2L13.6334 20C13.5 19.9333 13.3778 19.8555 13.2667 19.7666L10.2 20.8666C9.82224 21 9.45558 21.1111 9.10002 21.2C8.74446 21.2888 8.3778 21.3333 8.00002 21.3333C6.60002 21.3333 5.36113 20.7222 4.28335 19.5C3.20558 18.2777 2.66669 16.4888 2.66669 14.1333C2.66669 13 3.00558 12.1388 3.68335 11.55C4.36113 10.9611 5.12224 10.6666 5.96669 10.6666C6.54446 10.6666 7.11113 10.7944 7.66669 11.05C8.22224 11.3055 8.6778 11.7 9.03335 12.2333C9.34446 12.7222 9.74446 13.1166 10.2334 13.4166C10.7222 13.7166 11.2445 13.9222 11.8 14.0333L12 13.6333C12.0667 13.5 12.1445 13.3777 12.2334 13.2666L11.1334 10.2C11 9.82218 10.8889 9.45551 10.8 9.09996C10.7111 8.7444 10.6667 8.38885 10.6667 8.03329C10.6667 6.61107 11.2778 5.36107 12.5 4.28329C13.7222 3.20551 15.5111 2.66663 17.8667 2.66663C19 2.66663 19.8611 3.00551 20.45 3.68329C21.0389 4.36107 21.3334 5.12218 21.3334 5.96663C21.3334 6.5444 21.2056 7.11107 20.95 7.66663C20.6945 8.22218 20.3 8.67774 19.7667 9.03329C19.2778 9.3444 18.8834 9.7444 18.5834 10.2333C18.2834 10.7222 18.0778 11.2444 17.9667 11.8L18.3667 12C18.5 12.0666 18.6222 12.1444 18.7334 12.2333L21.8 11.1C22.1778 10.9666 22.5389 10.8611 22.8834 10.7833C23.2278 10.7055 23.5889 10.6666 23.9667 10.6666C25.7667 10.6666 27.1111 11.4111 28 12.9C28.8889 14.3888 29.3334 16.0444 29.3334 17.8666C29.3334 19 28.9778 19.8611 28.2667 20.45C27.5556 21.0388 26.7667 21.3333 25.9 21.3333C25.3445 21.3333 24.8056 21.2055 24.2834 20.95C23.7611 20.6944 23.3222 20.3 22.9667 19.7666C22.6556 19.2777 22.2556 18.8833 21.7667 18.5833C21.2778 18.2833 20.7556 18.0777 20.2 17.9666L20 18.3666C19.9334 18.5 19.8556 18.6222 19.7667 18.7333L20.8667 21.8C21 22.1555 21.1111 22.4944 21.2 22.8166C21.2889 23.1388 21.3334 23.4777 21.3334 23.8333C21.3556 25.2777 20.7556 26.5555 19.5334 27.6666C18.3111 28.7777 16.5111 29.3333 14.1334 29.3333ZM16 18C16.5556 18 17.0278 17.8055 17.4167 17.4166C17.8056 17.0277 18 16.5555 18 16C18 15.4444 17.8056 14.9722 17.4167 14.5833C17.0278 14.1944 16.5556 14 16 14C15.4445 14 14.9722 14.1944 14.5834 14.5833C14.1945 14.9722 14 15.4444 14 16C14 16.5555 14.1945 17.0277 14.5834 17.4166C14.9722 17.8055 15.4445 18 16 18ZM14.4667 11.6C14.6 11.5555 14.7389 11.5166 14.8834 11.4833C15.0278 11.45 15.1667 11.4222 15.3 11.4C15.4778 10.4666 15.8167 9.59996 16.3167 8.79996C16.8167 7.99996 17.4778 7.33329 18.3 6.79996C18.4111 6.71107 18.5 6.59996 18.5667 6.46663C18.6334 6.33329 18.6667 6.16663 18.6667 5.96663C18.6667 5.78885 18.6 5.63885 18.4667 5.51663C18.3334 5.3944 18.1334 5.33329 17.8667 5.33329C17.0222 5.33329 16.0667 5.51663 15 5.88329C13.9334 6.24996 13.3778 6.96663 13.3334 8.03329C13.3334 8.23329 13.3611 8.42218 13.4167 8.59996C13.4722 8.77774 13.5222 8.9444 13.5667 9.09996L14.4667 11.6ZM8.00002 18.6666C8.31113 18.6666 8.6778 18.5888 9.10002 18.4333L11.6 17.5333C11.5556 17.4 11.5167 17.2611 11.4834 17.1166C11.45 16.9722 11.4222 16.8333 11.4 16.7C10.4667 16.5222 9.60002 16.1833 8.80002 15.6833C8.00002 15.1833 7.33335 14.5222 6.80002 13.7C6.71113 13.5888 6.59446 13.5 6.45002 13.4333C6.30558 13.3666 6.14446 13.3333 5.96669 13.3333C5.76669 13.3333 5.61113 13.4 5.50002 13.5333C5.38891 13.6666 5.33335 13.8666 5.33335 14.1333C5.33335 15.3333 5.56113 16.3888 6.01669 17.3C6.47224 18.2111 7.13335 18.6666 8.00002 18.6666ZM14.1334 26.6666C15.1778 26.6666 16.2056 26.4555 17.2167 26.0333C18.2278 25.6111 18.7111 24.8777 18.6667 23.8333C18.6667 23.6555 18.6389 23.4888 18.5834 23.3333C18.5278 23.1777 18.4778 23.0333 18.4334 22.9L17.5334 20.4C17.4 20.4444 17.2611 20.4833 17.1167 20.5166C16.9722 20.55 16.8334 20.5777 16.7 20.6C16.5222 21.5333 16.1834 22.4 15.6834 23.2C15.1834 24 14.5222 24.6666 13.7 25.2C13.5889 25.2888 13.4945 25.4055 13.4167 25.55C13.3389 25.6944 13.3111 25.8444 13.3334 26C13.3556 26.1777 13.4222 26.3333 13.5334 26.4666C13.6445 26.6 13.8445 26.6666 14.1334 26.6666ZM25.9 18.6666C26.1 18.6666 26.2778 18.6111 26.4334 18.5C26.5889 18.3888 26.6667 18.1777 26.6667 17.8666C26.6667 17.0222 26.4889 16.0611 26.1334 14.9833C25.7778 13.9055 25.0556 13.3555 23.9667 13.3333C23.7667 13.3333 23.5778 13.3555 23.4 13.4C23.2222 13.4444 23.0556 13.4888 22.9 13.5333L20.4 14.4666C20.4445 14.6 20.4834 14.7388 20.5167 14.8833C20.55 15.0277 20.5778 15.1666 20.6 15.3C21.5334 15.4777 22.4 15.8166 23.2 16.3166C24 16.8166 24.6667 17.4777 25.2 18.3C25.2667 18.4111 25.3667 18.5 25.5 18.5666C25.6334 18.6333 25.7667 18.6666 25.9 18.6666Z" fill="#1C1B1F"/>
</g>
</svg>
