<svg width="27" height="27" viewBox="0 0 28 28" fill="none" xmlns="http://www.w3.org/2000/svg">
<g>
<path d="M20.8995 23.7982L19.6877 22.5657L21.7864 20.4618H14.2874V18.7327H21.7864L19.6877 16.6111L20.8995 15.3963L25.0901 19.5973L20.8995 23.7982ZM23.7743 13.0907H22.0495V6.11864C22.0495 6.02996 22.0126 5.94866 21.9389 5.87474C21.8652 5.80085 21.7841 5.7639 21.6956 5.7639H19.1746V8.77883H8.82521V5.7639H6.30421C6.21574 5.7639 6.13464 5.80085 6.06091 5.87474C5.9872 5.94866 5.95034 6.02996 5.95034 6.11864V21.5481C5.95034 21.6368 5.9872 21.7181 6.06091 21.792C6.13464 21.8659 6.21574 21.9028 6.30421 21.9028H11.9875V23.632H6.30421C5.73071 23.632 5.24089 23.4284 4.83473 23.0212C4.42855 22.614 4.22546 22.123 4.22546 21.5481V6.11864C4.22546 5.54373 4.42855 5.05269 4.83473 4.64553C5.24089 4.23835 5.73071 4.03476 6.30421 4.03476H11.3706C11.5298 3.47316 11.8552 3.00763 12.3469 2.63817C12.8386 2.26868 13.3896 2.08394 13.9999 2.08394C14.6338 2.08394 15.1937 2.26868 15.6794 2.63817C16.1652 3.00763 16.4877 3.47316 16.6469 4.03476H21.6956C22.2691 4.03476 22.7589 4.23835 23.1651 4.64553C23.5713 5.05269 23.7743 5.54373 23.7743 6.11864V13.0907ZM13.9999 5.89694C14.2962 5.89694 14.5435 5.79755 14.7418 5.59877C14.9401 5.39999 15.0393 5.15206 15.0393 4.85499C15.0393 4.55794 14.9401 4.31003 14.7418 4.11125C14.5435 3.91247 14.2962 3.81308 13.9999 3.81308C13.7036 3.81308 13.4563 3.91247 13.258 4.11125C13.0597 4.31003 12.9605 4.55794 12.9605 4.85499C12.9605 5.15206 13.0597 5.39999 13.258 5.59877C13.4563 5.79755 13.7036 5.89694 13.9999 5.89694Z" fill="black"/>
</g>
</svg>
