<svg width="27" height="27" viewBox="0 0 27 28" fill="none" xmlns="http://www.w3.org/2000/svg">
<g>
<path d="M5.89908 21.5791C4.93668 20.5742 4.17835 19.4103 3.62411 18.0876C3.06985 16.7648 2.79272 15.3468 2.79272 13.8334C2.79272 12.3082 3.06985 10.8842 3.62411 9.56145C4.17835 8.23871 4.93668 7.08076 5.89908 6.0876L7.09346 7.32015C6.27427 8.16553 5.63195 9.14539 5.1665 10.2597C4.70105 11.3741 4.46832 12.5653 4.46832 13.8334C4.46832 15.1206 4.70105 16.3215 5.1665 17.4358C5.63195 18.5502 6.27427 19.5204 7.09346 20.3466L5.89908 21.5791ZM9.05484 18.3225C8.50203 17.7402 8.06487 17.0663 7.74335 16.3007C7.42182 15.5352 7.26105 14.7127 7.26105 13.8334C7.26105 12.9422 7.42182 12.1138 7.74335 11.3483C8.06487 10.5827 8.50203 9.91468 9.05484 9.34421L10.2492 10.5768C9.83962 10.9994 9.51846 11.4894 9.28574 12.0466C9.05301 12.6037 8.93665 13.1993 8.93665 13.8334C8.93665 14.4674 9.05301 15.063 9.28574 15.6202C9.51846 16.1774 9.83962 16.6673 10.2492 17.09L9.05484 18.3225ZM13.405 15.5625C12.9481 15.5625 12.5547 15.3922 12.2246 15.0515C11.8944 14.7109 11.7294 14.3048 11.7294 13.8334C11.7294 13.3619 11.8944 12.9559 12.2246 12.6152C12.5547 12.2746 12.9481 12.1042 13.405 12.1042C13.8618 12.1042 14.2553 12.2746 14.5854 12.6152C14.9155 12.9559 15.0806 13.3619 15.0806 13.8334C15.0806 14.3048 14.9155 14.7109 14.5854 15.0515C14.2553 15.3922 13.8618 15.5625 13.405 15.5625ZM17.7551 18.3225L16.5607 17.09C16.9703 16.6673 17.2915 16.1774 17.5242 15.6202C17.7569 15.063 17.8733 14.4674 17.8733 13.8334C17.8733 13.1993 17.7569 12.6037 17.5242 12.0466C17.2915 11.4894 16.9703 10.9994 16.5607 10.5768L17.7551 9.34421C18.3079 9.91468 18.7451 10.5827 19.0666 11.3483C19.3881 12.1138 19.5489 12.9422 19.5489 13.8334C19.5489 14.7127 19.3881 15.5352 19.0666 16.3007C18.7451 17.0663 18.3079 17.7402 17.7551 18.3225ZM20.9109 21.5791L19.7165 20.3466C20.5357 19.5012 21.178 18.5213 21.6435 17.407C22.1089 16.2926 22.3416 15.1014 22.3416 13.8334C22.3416 12.5535 22.1089 11.3564 21.6435 10.242C21.178 9.12767 20.5357 8.15371 19.7165 7.32015L20.9109 6.0876C21.8733 7.08076 22.6316 8.23871 23.1858 9.56145C23.7401 10.8842 24.0172 12.3082 24.0172 13.8334C24.0172 15.3468 23.7401 16.7648 23.1858 18.0876C22.6316 19.4103 21.8733 20.5742 20.9109 21.5791Z" fill="black"/>
</g>
</svg>
