<svg width="32" height="32" viewBox="0 0 32 32" fill="none" xmlns="http://www.w3.org/2000/svg">
<mask id="mask0_63_1158" style="mask-type:alpha" maskUnits="userSpaceOnUse" x="0" y="0" width="32" height="32">
<rect width="32" height="32" fill="#D9D9D9"/>
</mask>
<g mask="url(#mask0_63_1158)">
<path d="M10.6667 24C10.2889 24 9.97224 23.8722 9.71669 23.6167C9.46113 23.3611 9.33335 23.0444 9.33335 22.6667C9.33335 22.2889 9.46113 21.9722 9.71669 21.7167C9.97224 21.4611 10.2889 21.3333 10.6667 21.3333C11.0445 21.3333 11.3611 21.4611 11.6167 21.7167C11.8722 21.9722 12 22.2889 12 22.6667C12 23.0444 11.8722 23.3611 11.6167 23.6167C11.3611 23.8722 11.0445 24 10.6667 24ZM16 24C15.6222 24 15.3056 23.8722 15.05 23.6167C14.7945 23.3611 14.6667 23.0444 14.6667 22.6667C14.6667 22.2889 14.7945 21.9722 15.05 21.7167C15.3056 21.4611 15.6222 21.3333 16 21.3333C16.3778 21.3333 16.6945 21.4611 16.95 21.7167C17.2056 21.9722 17.3334 22.2889 17.3334 22.6667C17.3334 23.0444 17.2056 23.3611 16.95 23.6167C16.6945 23.8722 16.3778 24 16 24ZM21.3334 24C20.9556 24 20.6389 23.8722 20.3834 23.6167C20.1278 23.3611 20 23.0444 20 22.6667C20 22.2889 20.1278 21.9722 20.3834 21.7167C20.6389 21.4611 20.9556 21.3333 21.3334 21.3333C21.7111 21.3333 22.0278 21.4611 22.2834 21.7167C22.5389 21.9722 22.6667 22.2889 22.6667 22.6667C22.6667 23.0444 22.5389 23.3611 22.2834 23.6167C22.0278 23.8722 21.7111 24 21.3334 24ZM6.66669 18.6667V16C6.66669 13.6444 7.42224 11.6 8.93335 9.86667C10.4445 8.13333 12.3556 7.11111 14.6667 6.8V4H17.3334V6.8C19.6445 7.11111 21.5556 8.13333 23.0667 9.86667C24.5778 11.6 25.3334 13.6444 25.3334 16V18.6667H6.66669ZM9.33335 16H22.6667C22.6667 14.1556 22.0167 12.5833 20.7167 11.2833C19.4167 9.98333 17.8445 9.33333 16 9.33333C14.1556 9.33333 12.5834 9.98333 11.2834 11.2833C9.98335 12.5833 9.33335 14.1556 9.33335 16ZM10.6667 28C10.2889 28 9.97224 27.8722 9.71669 27.6167C9.46113 27.3611 9.33335 27.0444 9.33335 26.6667C9.33335 26.2889 9.46113 25.9722 9.71669 25.7167C9.97224 25.4611 10.2889 25.3333 10.6667 25.3333C11.0445 25.3333 11.3611 25.4611 11.6167 25.7167C11.8722 25.9722 12 26.2889 12 26.6667C12 27.0444 11.8722 27.3611 11.6167 27.6167C11.3611 27.8722 11.0445 28 10.6667 28ZM16 28C15.6222 28 15.3056 27.8722 15.05 27.6167C14.7945 27.3611 14.6667 27.0444 14.6667 26.6667C14.6667 26.2889 14.7945 25.9722 15.05 25.7167C15.3056 25.4611 15.6222 25.3333 16 25.3333C16.3778 25.3333 16.6945 25.4611 16.95 25.7167C17.2056 25.9722 17.3334 26.2889 17.3334 26.6667C17.3334 27.0444 17.2056 27.3611 16.95 27.6167C16.6945 27.8722 16.3778 28 16 28ZM21.3334 28C20.9556 28 20.6389 27.8722 20.3834 27.6167C20.1278 27.3611 20 27.0444 20 26.6667C20 26.2889 20.1278 25.9722 20.3834 25.7167C20.6389 25.4611 20.9556 25.3333 21.3334 25.3333C21.7111 25.3333 22.0278 25.4611 22.2834 25.7167C22.5389 25.9722 22.6667 26.2889 22.6667 26.6667C22.6667 27.0444 22.5389 27.3611 22.2834 27.6167C22.0278 27.8722 21.7111 28 21.3334 28Z" fill="#1C1B1F"/>
</g>
</svg>
