<svg width="36" height="36" viewBox="0 0 36 36" fill="none" xmlns="http://www.w3.org/2000/svg">
<path d="M21.6815 10.2161H18.5266V24.9437H21.6815C23.4213 24.9437 24.8376 23.583 24.8376 21.9118V13.2486C24.8376 11.5768 23.4213 10.2161 21.6815 10.2161Z" fill="black"/>
<path d="M29.2993 0H5.85987C2.62346 0 0 2.62346 0 5.85987V29.2993C0 32.5358 2.62346 35.1592 5.85987 35.1592H29.2993C32.5358 35.1592 35.1592 32.5358 35.1592 29.2993V5.85987C35.1592 2.62346 32.5358 0 29.2993 0ZM12.3057 27.5414H9.96178V7.61783H12.3057V27.5414ZM27.5414 21.9118C27.5414 22.6707 27.3849 23.4078 27.0802 24.1022C26.7843 24.7732 26.3624 25.375 25.8244 25.8924C25.2865 26.4087 24.6601 26.8148 23.9622 27.099C23.2385 27.3925 22.4714 27.5414 21.6815 27.5414H15.8216V7.61783H21.6815C22.4714 7.61783 23.2385 7.76667 23.9628 8.05966C24.6601 8.34328 25.2871 8.74879 25.825 9.26621C26.363 9.78364 26.7849 10.3866 27.0808 11.0552C27.3849 11.7508 27.5414 12.4891 27.5414 13.2486V21.9118Z" fill="black"/>
</svg>
