<svg width="89" height="89" viewBox="0 0 89 89" fill="none" xmlns="http://www.w3.org/2000/svg">
<mask id="mask0_55_267" style="mask-type:alpha" maskUnits="userSpaceOnUse" x="0" y="0" width="89" height="89">
<rect width="89" height="89" fill="#D9D9D9"/>
</mask>
<g mask="url(#mask0_55_267)">
<path d="M34.1595 79.5793C26.9521 78.8804 21.0021 75.8793 16.3096 70.5759C11.6172 65.2725 9.27094 58.8056 9.27094 51.175C9.27094 45.4224 11.5732 39.1171 16.1777 32.2591C20.7822 25.401 27.7508 17.9285 37.0833 9.84155C46.2971 17.8334 53.2062 25.2168 57.8107 31.9916C62.4152 38.7664 64.7768 45.0182 64.8958 50.7471V51.2035H59.3333V50.7471C59.2145 46.2591 57.2914 41.2077 53.564 35.5929C49.8366 29.9781 44.3431 23.8617 37.0833 17.2438C29.7285 23.9806 24.1814 30.192 20.4422 35.8781C16.703 41.5642 14.8333 46.6632 14.8333 51.175C14.8333 57.3128 16.6412 62.47 20.2568 66.6466C23.8724 70.8233 28.5066 73.261 34.1595 73.9598V79.5793ZM41.5762 79.7291V58.6201H54.5553C55.7534 58.6201 56.7898 59.0694 57.6646 59.9679C58.5394 60.8665 58.9768 61.9148 58.9768 63.1129V68.0336C58.9768 69.2317 58.5394 70.2681 57.6646 71.1429C56.7898 72.0176 55.7534 72.455 54.5553 72.455H45.9976V79.7291H41.5762ZM63.9689 79.7291V58.6201H68.3902V66.0368H76.948V58.6201H81.3694V79.7291H76.948V70.4582H68.3902V79.7291H63.9689ZM45.9976 68.0336H54.5553V63.0416H45.9976V68.0336Z" fill="#1C1B1F"/>
</g>
</svg>
