<svg width="32" height="32" viewBox="0 0 32 32" fill="none" xmlns="http://www.w3.org/2000/svg">
<mask id="mask0_60_1010" style="mask-type:alpha" maskUnits="userSpaceOnUse" x="0" y="0" width="32" height="32">
<rect width="32" height="32" fill="#D9D9D9"/>
</mask>
<g mask="url(#mask0_60_1010)">
<path d="M12.2821 28.6128C9.69069 28.3615 7.55138 27.2825 5.8642 25.3756C4.17702 23.4688 3.33344 21.1436 3.33344 18.4C3.33344 16.3317 4.16121 14.0646 5.81677 11.5988C7.47232 9.13299 9.97787 6.44624 13.3334 3.53857C16.6462 6.41206 19.1304 9.06675 20.7859 11.5026C22.4415 13.9385 23.2906 16.1864 23.3334 18.2462V18.4103H21.3334V18.2462C21.2907 16.6325 20.5992 14.8163 19.259 12.7975C17.9189 10.7787 15.9436 8.57953 13.3334 6.20004C10.689 8.62226 8.69451 10.8556 7.35007 12.9C6.00562 14.9445 5.3334 16.7778 5.3334 18.4C5.3334 20.6069 5.9834 22.4612 7.2834 23.9629C8.5834 25.4646 10.2496 26.3411 12.2821 26.5923V28.6128ZM14.9488 28.6667V21.0769H19.6155C20.0462 21.0769 20.4189 21.2385 20.7334 21.5615C21.0479 21.8846 21.2052 22.2616 21.2052 22.6923V24.4616C21.2052 24.8923 21.0479 25.265 20.7334 25.5795C20.4189 25.894 20.0462 26.0513 19.6155 26.0513H16.5385V28.6667H14.9488ZM23.0001 28.6667V21.0769H24.5898V23.7436H27.6668V21.0769H29.2565V28.6667H27.6668V25.3333H24.5898V28.6667H23.0001ZM16.5385 24.4616H19.6155V22.6667H16.5385V24.4616Z" fill="#1C1B1F"/>
</g>
</svg>
